<svg xmlns="http://www.w3.org/2000/svg" viewBox="0 0 60 65.22"><defs><style>.cls-1{font-size:10px;font-family:MicrosoftYaHei-Bold, Microsoft YaHei;font-weight:700;}.cls-1,.cls-3{fill:#0eceff;}.cls-2{fill:none;}</style></defs><title>创建单人</title><g id="图层_2" data-name="图层 2"><g id="图层_1-2" data-name="图层 1"><text class="cls-1" transform="translate(0 62.6)">创建单人核验</text><path class="cls-2" d="M42.22,35.74a56.7,56.7,0,0,0-12.76-3.63c-.69-.17-1.38-.69-1.38-1.38a2,2,0,0,1,.86-1.9c3.8-1.9,5.7-6.9,5.7-14.5.17-7.42-2.59-10.7-9-10.7s-9.15,3.28-9.15,10.7c0,9.49,3.11,13.12,5.87,14.5a1.64,1.64,0,0,1,.86,1.9c-.17.69-.69,1.38-1.38,1.38a62,62,0,0,0-14.5,4.32c-.35.17-.52.35-.52.69l-.69,5a7.48,7.48,0,0,0,.17.86.9.9,0,0,0,.69.35H41.64a8.93,8.93,0,0,1,.57-7.58Z"/><polygon class="cls-2" points="51.06 34.65 49.06 34.65 49.06 39.15 48.45 39.15 44.58 39.15 44.56 39.15 44.56 41.15 44.86 41.15 48.73 41.15 49.06 41.15 49.06 45.65 51.06 45.65 51.06 41.15 55.56 41.15 55.56 39.15 51.06 39.15 51.06 34.65"/><path class="cls-3" d="M50.06,31.15a9,9,0,0,0-5.21,1.67,50,50,0,0,0-10.73-3.65c2.42-2.59,4.32-7.25,4.32-15C38.43,2.42,31.53,0,25.83,0s-12.6,2.42-12.6,14.15c0,7.77,2.07,12.26,4.49,15a78.66,78.66,0,0,0-11.56,4,4.46,4.46,0,0,0-2.59,3.45l-.69,5a4.35,4.35,0,0,0,1,3.45A4,4,0,0,0,7.19,46.6h36.6a9,9,0,1,0,6.27-15.45ZM7,43.32A.9.9,0,0,1,6.33,43a7.48,7.48,0,0,1-.17-.86l.69-5c0-.35.17-.52.52-.69a62,62,0,0,1,14.5-4.32c.69,0,1.21-.69,1.38-1.38a1.64,1.64,0,0,0-.86-1.9c-2.76-1.38-5.87-5-5.87-14.5,0-7.42,2.76-10.7,9.15-10.7s9.15,3.28,9,10.7c0,7.59-1.9,12.6-5.7,14.5a2,2,0,0,0-.86,1.9c0,.69.69,1.21,1.38,1.38a56.7,56.7,0,0,1,12.76,3.63,8.93,8.93,0,0,0-.57,7.58Zm48.54-2.17h-4.5v4.5h-2v-4.5h-4.5v-2h4.5v-4.5h2v4.5h4.5Z"/></g></g></svg>