<svg xmlns="http://www.w3.org/2000/svg" viewBox="0 0 61.08 65.22"><defs><style>.cls-1{font-size:10px;font-family:MicrosoftYaHei-Bold, Microsoft YaHei;font-weight:700;}.cls-1,.cls-4{fill:#0eceff;}.cls-2,.cls-3{fill:none;}.cls-3{stroke:#0eceff;stroke-linecap:round;stroke-linejoin:round;stroke-width:0;}</style></defs><title>创建多人</title><g id="图层_2" data-name="图层 2"><g id="图层_1-2" data-name="图层 1"><text class="cls-1" transform="translate(0 62.6)">创建多人核验</text><path class="cls-2" d="M45.51,33.14l-.06,0,.06,0h0Z"/><path class="cls-2" d="M45.23,33c2.94-2.33,4.41-7,4.41-13.68.17-7.42-2.59-10.7-9-10.7a13.54,13.54,0,0,0-2.81.27,22,22,0,0,1,.59,5.26c0,7.77-1.9,12.43-4.32,15A49.86,49.86,0,0,1,45.23,33Z"/><polygon class="cls-2" points="53.33 35.94 51.33 35.94 51.33 40.19 48.6 40.19 46.58 40.19 46.58 42.19 48.81 42.19 51.33 42.19 51.33 46.94 53.33 46.94 53.33 42.19 57.58 42.19 57.58 40.19 53.33 40.19 53.33 35.94"/><path class="cls-2" d="M44.24,36.78a.49.49,0,0,0-.45-.36,57.52,57.52,0,0,0-14.33-4.32c-.69-.17-1.38-.69-1.38-1.38a2,2,0,0,1,.86-1.9c3.8-1.9,5.7-6.9,5.7-14.5.17-7.42-2.59-10.7-9-10.7s-9.15,3.28-9.15,10.7c0,9.49,3.11,13.12,5.87,14.5a1.64,1.64,0,0,1,.86,1.9c-.17.69-.69,1.38-1.38,1.38a62,62,0,0,0-14.5,4.32c-.35.17-.52.35-.52.69l-.69,5a7.48,7.48,0,0,0,.17.86.9.9,0,0,0,.69.35H43.35a8.89,8.89,0,0,1,.89-6.54Z"/><path class="cls-3" d="M45.52,33.15a5.16,5.16,0,0,1,.84.53"/><path class="cls-3" d="M37.5,7.72c-.13-.39-.26-.75-.41-1.1"/><path class="cls-3" d="M36.58,5.54c.08.14.15.29.22.43"/><path class="cls-4" d="M52.08,32.19a9,9,0,0,0-1.59.15c1.72-2.77,2.94-7,2.94-13.18C53.44,7.42,46.53,5,40.84,5a16.06,16.06,0,0,0-4.26.54h0c.08.14.15.29.22.43-.07-.15-.14-.29-.22-.43C34.14,1.13,29.71,0,25.83,0c-5.7,0-12.6,2.42-12.6,14.15,0,7.77,2.07,12.26,4.49,15a78.66,78.66,0,0,0-11.56,4,4.46,4.46,0,0,0-2.59,3.45l-.69,5a4.35,4.35,0,0,0,1,3.45A4,4,0,0,0,7.19,46.6H44.3a4.27,4.27,0,0,0,.56-.06,9,9,0,1,0,7.22-14.36Zm-6.64.92.06,0h0a5.16,5.16,0,0,1,.84.53,5.16,5.16,0,0,0-.84-.53h0ZM37.5,7.72c-.13-.39-.26-.75-.41-1.1C37.24,7,37.38,7.33,37.5,7.72Zm.93,6.44a22,22,0,0,0-.59-5.26,13.54,13.54,0,0,1,2.81-.27c6.39,0,9.15,3.28,9,10.7,0,6.68-1.47,11.35-4.41,13.68a49.86,49.86,0,0,0-11.11-3.83C36.54,26.58,38.43,21.92,38.43,14.15ZM7,43.32A.9.9,0,0,1,6.33,43a7.48,7.48,0,0,1-.17-.86l.69-5c0-.35.17-.52.52-.69a62,62,0,0,1,14.5-4.32c.69,0,1.21-.69,1.38-1.38a1.64,1.64,0,0,0-.86-1.9c-2.76-1.38-5.87-5-5.87-14.5,0-7.42,2.76-10.7,9.15-10.7s9.15,3.28,9,10.7c0,7.59-1.9,12.6-5.7,14.5a2,2,0,0,0-.86,1.9c0,.69.69,1.21,1.38,1.38a57.52,57.52,0,0,1,14.33,4.32.49.49,0,0,1,.45.36,8.89,8.89,0,0,0-.89,6.54Zm50.56-1.14H53.33v4.75h-2V42.19H46.58v-2h4.75V35.94h2v4.25h4.25Z"/></g></g></svg>