<svg xmlns="http://www.w3.org/2000/svg" viewBox="0 0 61.25 61.25"><defs><style>.cls-1{fill:none;}.cls-2{fill:#0eceff;}.cls-3{fill:#fff;}</style></defs><title>删除文本</title><g id="图层_2" data-name="图层 2"><g id="图层_1-2" data-name="图层 1"><polygon class="cls-1" points="41.81 40.55 43.67 38.66 44.27 38.06 43.66 37.46 42.13 35.95 41.66 36.43 39.67 38.44 38.52 37.3 37.18 35.98 35.87 37.32 35.08 38.12 37.57 40.58 35.11 43.06 37.24 45.17 39.7 42.68 41.71 44.66 42.19 45.14 43.7 43.61 44.3 43.01 43.69 42.41 41.81 40.55"/><polygon class="cls-1" points="28.69 38.86 27.19 37.37 26.57 36.74 25.93 37.38 21.69 41.62 20.98 42.33 19.69 41.03 18.25 39.59 16.13 41.71 19.72 45.3 20.98 46.57 21.72 45.83 28.69 38.86"/><polygon class="cls-1" points="40.1 18.55 38.03 16.33 38.04 18.56 40.1 18.55"/><path class="cls-1" d="M50.25,3h0l-39.5.25A7.76,7.76,0,0,0,3,11l.25,39.5A7.76,7.76,0,0,0,11,58.25h0L50.55,58a7.76,7.76,0,0,0,7.7-7.8L58,10.7A7.76,7.76,0,0,0,50.25,3ZM20.51,12.71,37,12.6h.12a1,1,0,0,1,.6.32l5.53,5.92,0,0,0,0,0,0,0,0v0l0,.05h0l.07.14h0a1.19,1.19,0,0,1,.08.3h0v.07h0s0,0,0,.06l.09,14a8,8,0,0,0-2-.8l-.08-12.06-4.5,0a1.06,1.06,0,0,1-1-1.1l0-4.86-14.5.09.12,18.26a7.92,7.92,0,0,0-2,.46l-.13-19.81A1.06,1.06,0,0,1,20.51,12.71Zm4.45,20a1.11,1.11,0,0,1,0-2.21l13.85-.09a1.06,1.06,0,0,1,1,1.1,1.08,1.08,0,0,1-.7,1l-.61.07Zm8.88,2.37a8,8,0,0,0-1.47,2.22l-2.92,0a8,8,0,0,0-1.74-2.2ZM23.92,27a1.06,1.06,0,0,1,1-1.11l13.85-.09a1.11,1.11,0,0,1,0,2.21l-13.85.09A1.06,1.06,0,0,1,23.92,27ZM22.45,48.13h0a7.07,7.07,0,0,1-1-.08,7,7,0,0,1-6-6.87,7,7,0,0,1,4.24-6.48,6.94,6.94,0,0,1,2-.52,7.05,7.05,0,0,1,.72,0h0a7,7,0,0,1,3.66,1,7,7,0,0,1,2.23,2.2,7,7,0,0,1-5.85,10.76Zm4-.11a8.05,8.05,0,0,0,2.44-2.22l4.72,0a8,8,0,0,0,3,2.19Zm17.26-1.73a7,7,0,0,1-4,1.28h0a7,7,0,0,1-6.2-10.23,7,7,0,0,1,1.83-2.22,7,7,0,0,1,4.33-1.55h0a7,7,0,0,1,4,12.72Z"/><path class="cls-2" d="M21.64,33.17l-.12-18.26L36,14.82l0,4.86a1.06,1.06,0,0,0,1,1.1l4.5,0,.08,12.06a8,8,0,0,1,2,.8l-.09-14s0,0,0-.06h0v-.07h0a1.19,1.19,0,0,0-.08-.3h0L43.39,19h0l0-.05v0l0,0,0,0,0,0,0,0-5.53-5.92a1,1,0,0,0-.6-.32H37l-16.49.1a1.06,1.06,0,0,0-1,1.11l.13,19.81A7.92,7.92,0,0,1,21.64,33.17ZM40.1,18.55H38V16.33Z"/><path class="cls-2" d="M32.37,37.34a8,8,0,0,1,1.47-2.22l-6.12,0a8,8,0,0,1,1.74,2.2Z"/><path class="cls-2" d="M39.1,32.59a1.08,1.08,0,0,0,.7-1,1.06,1.06,0,0,0-1-1.1l-13.85.09a1.11,1.11,0,0,0,0,2.21l13.53-.09Z"/><path class="cls-2" d="M38.78,28a1.11,1.11,0,0,0,0-2.21l-13.85.09a1.11,1.11,0,0,0,0,2.21Z"/><path class="cls-2" d="M33.62,45.76l-4.72,0A8.05,8.05,0,0,1,26.46,48l10.16-.06A8,8,0,0,1,33.62,45.76Z"/><path class="cls-2" d="M29.41,41.08a7,7,0,0,0-1.11-3.72,7,7,0,0,0-2.23-2.2,7,7,0,0,0-3.66-1h0a7.05,7.05,0,0,0-.72,0,6.94,6.94,0,0,0-2,.52,7,7,0,0,0,.35,13l1.39.35a7.07,7.07,0,0,0,1,.08h0a7,7,0,0,0,7-7ZM21,46.57,19.72,45.3l-3.59-3.59,2.12-2.12L19.69,41,21,42.33l.71-.71,4.24-4.24.64-.64.63.63,1.49,1.49-7,7Z"/><path class="cls-3" d="M21.39,48,20,47.7A6.93,6.93,0,0,0,21.39,48Z"/><path class="cls-2" d="M43.65,34.79a7,7,0,0,0-4-1.23h0a7,7,0,0,0-4.33,1.55,7,7,0,0,0-1.83,2.22,7,7,0,0,0,6.2,10.23h0a7,7,0,0,0,3.91-12.77Zm.06,8.82-1.51,1.53-.48-.48-2-2-2.46,2.49-2.13-2.11,2.46-2.49-2.49-2.46.79-.8L37.18,36l1.33,1.32,1.16,1.14,2-2,.48-.48,1.53,1.51.61.6-.6.61-1.86,1.88,1.88,1.86.61.6Z"/><path class="cls-2" d="M61,10.68A10.76,10.76,0,0,0,50.25,0h-.07L10.68.25A10.76,10.76,0,0,0,0,11.07l.25,39.5A10.76,10.76,0,0,0,11,61.25h.07L50.57,61A10.76,10.76,0,0,0,61.25,50.18ZM50.55,58l-39.5.25h0a7.76,7.76,0,0,1-7.75-7.7L3,11a7.76,7.76,0,0,1,7.7-7.8L50.2,3h0A7.76,7.76,0,0,1,58,10.7l.25,39.5A7.76,7.76,0,0,1,50.55,58Z"/></g></g></svg>