<svg xmlns="http://www.w3.org/2000/svg" viewBox="0 0 49.09 67.46"><defs><style>.cls-1{font-size:10px;font-family:MicrosoftYaHei-Bold, Microsoft YaHei;font-weight:700;}.cls-1,.cls-2{fill:#0eceff;}</style></defs><title>单人核验</title><g id="图层_2" data-name="图层 2"><g id="图层_1-2" data-name="图层 1"><text class="cls-1" transform="translate(4.54 64.85)">单人核验</text><path class="cls-2" d="M24.58,3.51c5,0,9.15,5.36,9.15,12,0,2.92-1,6.32-4.22,10.1-2.36,2.75-3.22,5.43-2.54,8,1.18,4.43,5.74,6.26,10.76,8,2.58.91,6.9,2.43,7.5,3.67a2.54,2.54,0,0,1,.12.36H3.85a7.31,7.31,0,0,1,.33-.8c.59-1.26,4.37-2.85,6.88-3.9C15.63,39,19.73,37,21,32.76a8,8,0,0,0-1.43-7c-.06-.08-4.12-6.94-4.12-10.33,0-6.48,4.19-12,9.15-12m0-3.51c-7,0-12.66,6.93-12.66,15.46,0,4.72,1.15,7.88,4.73,12.3C22.54,36.45,3.91,37.09,1,43.29a10.37,10.37,0,0,0-1,4.92,1.17,1.17,0,0,0,.09.61.54.54,0,0,0,.45.27h48a.53.53,0,0,0,.44-.27,1.16,1.16,0,0,0,.09-.61,10.77,10.77,0,0,0-.7-4.5c-3.09-6.49-24.69-6-16.22-15.87,2.77-3.26,5.06-7.66,5.06-12.38C37.23,6.93,31.56,0,24.58,0Zm0,0"/></g></g></svg>