<svg xmlns="http://www.w3.org/2000/svg" viewBox="0 0 62.09 67.34"><defs><style>.cls-1{font-size:10px;font-family:MicrosoftYaHei-Bold, Microsoft YaHei;font-weight:700;}.cls-1,.cls-3{fill:#0eceff;}.cls-2{fill:none;}</style></defs><title>多人核验</title><g id="图层_2" data-name="图层 2"><g id="图层_1-2" data-name="图层 1"><text class="cls-1" transform="translate(10.04 64.72)">多人核验</text><path class="cls-2" d="M37.73,41.55A27.91,27.91,0,0,1,30,37.86a8.6,8.6,0,0,1-2.37-2.73A7.57,7.57,0,0,1,27,33.52c-.6-2.23,0-4.57,1.75-7,.24-.33.5-.66.79-1a22,22,0,0,0,1.67-2.25,14.17,14.17,0,0,0,2.54-7.85A14,14,0,0,0,31.11,7.1a9.69,9.69,0,0,0-2.59-2.41,7.37,7.37,0,0,0-3.94-1.18c-5,0-9.15,5.47-9.15,12,0,3.4,4.06,10.25,4.12,10.33a8,8,0,0,1,1.43,7C19.73,37,15.63,39,11.06,40.88c-2.51,1.05-6.29,2.64-6.88,3.9a7.31,7.31,0,0,0-.33.8h41.5a2.55,2.55,0,0,0-.12-.36C44.64,44,40.32,42.46,37.73,41.55Z"/><path class="cls-2" d="M50.73,41.55c-5-1.77-9.58-3.6-10.76-8-.68-2.53.18-5.22,2.54-8,3.22-3.78,4.22-7.18,4.22-10.1,0-6.59-4.1-12-9.15-12a7.25,7.25,0,0,0-3.92,1.21,17.31,17.31,0,0,1,3.57,10.74A19.06,19.06,0,0,1,33.1,26.67c-.3.4-.61.79-.93,1.17A9.87,9.87,0,0,0,30.7,30a3.86,3.86,0,0,0-.38,2.58,4.86,4.86,0,0,0,2.33,2.78c4.48,2.89,13.8,4.21,15.75,8.3a7,7,0,0,1,.53,1.88h9.43a2.55,2.55,0,0,0-.12-.36C57.64,44,53.32,42.46,50.73,41.55Z"/><path class="cls-3" d="M61.39,43.71c-3.09-6.49-24.69-6-16.22-15.87,2.77-3.26,5.06-7.66,5.06-12.38C50.23,6.93,44.56,0,37.58,0a10.92,10.92,0,0,0-6.5,2.22A10.92,10.92,0,0,0,24.58,0c-7,0-12.66,6.93-12.66,15.46,0,4.72,1.15,7.88,4.73,12.3C22.54,36.45,3.91,37.09,1,43.29a10.37,10.37,0,0,0-1,4.92,1.17,1.17,0,0,0,.09.61.54.54,0,0,0,.45.27h61a.53.53,0,0,0,.44-.27,1.16,1.16,0,0,0,.09-.61A10.77,10.77,0,0,0,61.39,43.71ZM16.85,45.58h-13a7.31,7.31,0,0,1,.33-.8c.59-1.26,4.37-2.85,6.88-3.9C15.63,39,19.73,37,21,32.76a8,8,0,0,0-1.43-7c-.06-.08-4.12-6.94-4.12-10.33,0-6.48,4.19-12,9.15-12a7.37,7.37,0,0,1,3.94,1.18A9.69,9.69,0,0,1,31.11,7.1a14,14,0,0,1,2.62,8.35,14.17,14.17,0,0,1-2.54,7.85,22,22,0,0,1-1.67,2.25c-.28.33-.55.66-.79,1-1.75,2.4-2.35,4.74-1.75,7a7.57,7.57,0,0,0,.64,1.62A8.6,8.6,0,0,0,30,37.86a27.91,27.91,0,0,0,7.75,3.68c2.58.91,6.9,2.43,7.5,3.67a2.55,2.55,0,0,1,.12.36Zm32.07,0a7,7,0,0,0-.53-1.88c-2-4.09-11.27-5.41-15.75-8.3a4.86,4.86,0,0,1-2.33-2.78A3.86,3.86,0,0,1,30.7,30a9.87,9.87,0,0,1,1.47-2.2c.32-.37.63-.76.93-1.17a19.06,19.06,0,0,0,4.14-11.22A17.31,17.31,0,0,0,33.66,4.72a7.25,7.25,0,0,1,3.92-1.21c5,0,9.15,5.36,9.15,12,0,2.92-1,6.32-4.22,10.1-2.36,2.75-3.22,5.43-2.54,8,1.18,4.43,5.74,6.26,10.76,8,2.58.91,6.9,2.43,7.5,3.67a2.55,2.55,0,0,1,.12.36Z"/></g></g></svg>