<svg xmlns="http://www.w3.org/2000/svg" viewBox="0 0 61.25 61.25"><defs><style>.cls-1{fill:none;}.cls-2{fill:#0eceff;}</style></defs><title>＋文本</title><g id="图层_2" data-name="图层 2"><g id="图层_1-2" data-name="图层 1"><polygon class="cls-1" points="40.1 18.55 38.03 16.33 38.04 18.56 40.1 18.55"/><polygon class="cls-1" points="43.67 39.04 41.67 39.05 41.18 39.05 41.16 35.55 39.63 35.56 38.16 35.57 38.17 37.3 38.18 39.07 34.68 39.09 34.68 39.75 34.7 41.96 34.7 42.09 38.2 42.07 38.22 45.57 41.22 45.55 41.2 42.05 41.69 42.05 43.69 42.04 44.7 42.03 44.68 39.03 43.67 39.04"/><path class="cls-1" d="M58,10.7A7.76,7.76,0,0,0,50.25,3H50.2l-39.5.25A7.76,7.76,0,0,0,3,11l.25,39.5A7.76,7.76,0,0,0,11,58.25H11L50.55,58a7.76,7.76,0,0,0,7.7-7.8ZM20.73,48a1.06,1.06,0,0,1-1-1.1l-.21-33.13a1.06,1.06,0,0,1,1-1.11L37,12.6h.12a1,1,0,0,1,.6.32l5.53,5.92,0,0,0,0,0,0,0,0v0l0,.05h0l.07.14h0a1.19,1.19,0,0,1,.08.3h0v.07h0s0,0,0,.06l.09,14a7.94,7.94,0,0,0-2-.8l-.08-12.06-4.5,0a1.06,1.06,0,0,1-1-1.1l0-4.86-14.5.09.2,30.92,11.89-.08c.15.17.29.34.46.5a8,8,0,0,0,2.54,1.69ZM31.82,42,25,42a1.11,1.11,0,0,1,0-2.21l6.72,0A7.74,7.74,0,0,0,31.82,42ZM25,37.38a1.11,1.11,0,0,1,0-2.21l8.87-.06a8,8,0,0,0-1.47,2.22Zm0-4.64a1.11,1.11,0,0,1,0-2.21l13.85-.09a1.06,1.06,0,0,1,1,1.1,1.08,1.08,0,0,1-.7,1l-.61.07Zm-1-5.74a1.06,1.06,0,0,1,1-1.11l13.85-.09a1.11,1.11,0,0,1,0,2.21l-13.85.09A1.06,1.06,0,0,1,23.92,27ZM43.72,46.28a7,7,0,0,1-4,1.28h0A6.94,6.94,0,0,1,35,45.75l-.23-.21A7,7,0,0,1,32.83,42a6.81,6.81,0,0,1-.09-2.21,7,7,0,0,1,.74-2.43,7,7,0,0,1,1.83-2.22,7,7,0,0,1,4.33-1.55h0a7,7,0,0,1,4,12.72Z"/><path class="cls-2" d="M38.78,28a1.11,1.11,0,0,0,0-2.21l-13.85.09a1.11,1.11,0,0,0,0,2.21Z"/><path class="cls-2" d="M25,39.81A1.11,1.11,0,0,0,25,42l6.8,0a7.74,7.74,0,0,1-.09-2.21Z"/><path class="cls-2" d="M39.1,32.59a1.08,1.08,0,0,0,.7-1,1.06,1.06,0,0,0-1-1.1l-13.85.09a1.11,1.11,0,0,0,0,2.21l13.53-.09Z"/><path class="cls-2" d="M33.84,35.12,25,35.18a1.11,1.11,0,0,0,0,2.21l7.39,0A8,8,0,0,1,33.84,35.12Z"/><path class="cls-2" d="M33.61,45.76l-11.89.08-.2-30.92L36,14.82l0,4.86a1.06,1.06,0,0,0,1,1.1l4.5,0,.08,12.06a7.94,7.94,0,0,1,2,.8l-.09-14s0,0,0-.06h0v-.07h0a1.19,1.19,0,0,0-.08-.3h0L43.39,19h0l0-.05v0l0,0,0,0,0,0,0,0-5.53-5.92a1,1,0,0,0-.6-.32H37l-16.49.1a1.06,1.06,0,0,0-1,1.11L19.73,47a1.06,1.06,0,0,0,1,1.1l15.87-.1a8,8,0,0,1-2.54-1.69C33.91,46.09,33.76,45.93,33.61,45.76ZM40.1,18.55H38V16.33Z"/><path class="cls-2" d="M43.64,34.79a7,7,0,0,0-4-1.23h0a7,7,0,0,0-4.33,1.55,7,7,0,0,0-1.83,2.22,7.17,7.17,0,0,0-.79,3.28A7.07,7.07,0,0,0,32.83,42a7,7,0,0,0,1.94,3.57l.23.21a6.94,6.94,0,0,0,4.69,1.81h0a7,7,0,0,0,3.91-12.77Zm0,7.24H41.2l0,3.5-3,0,0-3.5-3.5,0v-3l3.5,0v-3.5h3l0,3.5h3.5l0,3Z"/><path class="cls-2" d="M61.25,50.18,61,10.68A10.76,10.76,0,0,0,50.25,0h-.07L10.68.25A10.76,10.76,0,0,0,0,11.07l.25,39.5A10.76,10.76,0,0,0,11,61.25h.07L50.57,61h0A10.76,10.76,0,0,0,61.25,50.18ZM50.55,58,11,58.25H11a7.76,7.76,0,0,1-7.75-7.7L3,11a7.76,7.76,0,0,1,7.7-7.8L50.2,3h.05A7.76,7.76,0,0,1,58,10.7l.25,39.5A7.76,7.76,0,0,1,50.55,58Z"/></g></g></svg>